<?xml version="1.0" encoding="UTF-8"?>
<svg xmlns="http://www.w3.org/2000/svg"
     width="210mm" height="297mm"
     viewBox="0 0 210 297">

<rect width="210" height="297" fill="white"/>

<rect x="30.000" y="5.000" width="10" height="10" fill="white" stroke="#444444" stroke-width="0.3" rx="1" />
<rect x="40.000" y="5.000" width="10" height="10" fill="white" stroke="#444444" stroke-width="0.3" rx="1" />
<rect x="50.000" y="5.000" width="10" height="10" fill="white" stroke="#444444" stroke-width="0.3" rx="1" />
<rect x="60.000" y="5.000" width="10" height="10" fill="white" stroke="#444444" stroke-width="0.3" rx="1" />
<rect x="70.000" y="5.000" width="10" height="10" fill="white" stroke="#444444" stroke-width="0.3" rx="1" />
<rect x="80.000" y="5.000" width="10" height="10" fill="white" stroke="#444444" stroke-width="0.3" rx="1" />
<rect x="90.000" y="10.000" width="10" height="10" fill="white" stroke="#444444" stroke-width="0.3" rx="1" />
<rect x="110.000" y="10.000" width="10" height="10" fill="white" stroke="#444444" stroke-width="0.3" rx="1" />
<rect x="120.000" y="5.000" width="10" height="10" fill="white" stroke="#444444" stroke-width="0.3" rx="1" />
<rect x="130.000" y="5.000" width="10" height="10" fill="white" stroke="#444444" stroke-width="0.3" rx="1" />
<rect x="140.000" y="5.000" width="10" height="10" fill="white" stroke="#444444" stroke-width="0.3" rx="1" />
<rect x="150.000" y="5.000" width="10" height="10" fill="white" stroke="#444444" stroke-width="0.3" rx="1" />
<rect x="160.000" y="5.000" width="10" height="10" fill="white" stroke="#444444" stroke-width="0.3" rx="1" />
<rect x="170.000" y="5.000" width="10" height="10" fill="white" stroke="#444444" stroke-width="0.3" rx="1" />
<rect x="30.000" y="15.000" width="10" height="10" fill="white" stroke="#444444" stroke-width="0.3" rx="1" />
<rect x="40.000" y="15.000" width="10" height="10" fill="white" stroke="#444444" stroke-width="0.3" rx="1" />
<rect x="50.000" y="15.000" width="10" height="10" fill="white" stroke="#444444" stroke-width="0.3" rx="1" />
<rect x="60.000" y="15.000" width="10" height="10" fill="white" stroke="#444444" stroke-width="0.3" rx="1" />
<rect x="70.000" y="15.000" width="10" height="10" fill="white" stroke="#444444" stroke-width="0.3" rx="1" />
<rect x="80.000" y="15.000" width="10" height="10" fill="white" stroke="#444444" stroke-width="0.3" rx="1" />
<rect x="90.000" y="20.000" width="10" height="10" fill="white" stroke="#444444" stroke-width="0.3" rx="1" />
<rect x="110.000" y="20.000" width="10" height="10" fill="white" stroke="#444444" stroke-width="0.3" rx="1" />
<rect x="120.000" y="15.000" width="10" height="10" fill="white" stroke="#444444" stroke-width="0.3" rx="1" />
<rect x="130.000" y="15.000" width="10" height="10" fill="white" stroke="#444444" stroke-width="0.3" rx="1" />
<rect x="140.000" y="15.000" width="10" height="10" fill="white" stroke="#444444" stroke-width="0.3" rx="1" />
<rect x="150.000" y="15.000" width="10" height="10" fill="white" stroke="#444444" stroke-width="0.3" rx="1" />
<rect x="160.000" y="15.000" width="10" height="10" fill="white" stroke="#444444" stroke-width="0.3" rx="1" />
<rect x="170.000" y="15.000" width="10" height="10" fill="white" stroke="#444444" stroke-width="0.3" rx="1" />
<rect x="30.000" y="25.000" width="10" height="10" fill="white" stroke="#444444" stroke-width="0.3" rx="1" />
<rect x="40.000" y="25.000" width="10" height="10" fill="white" stroke="#444444" stroke-width="0.3" rx="1" />
<rect x="50.000" y="25.000" width="10" height="10" fill="white" stroke="#444444" stroke-width="0.3" rx="1" />
<rect x="60.000" y="25.000" width="10" height="10" fill="white" stroke="#444444" stroke-width="0.3" rx="1" />
<rect x="70.000" y="25.000" width="10" height="10" fill="white" stroke="#444444" stroke-width="0.3" rx="1" />
<rect x="80.000" y="25.000" width="10" height="10" fill="white" stroke="#444444" stroke-width="0.3" rx="1" />
<rect x="120.000" y="25.000" width="10" height="10" fill="white" stroke="#444444" stroke-width="0.3" rx="1" />
<rect x="130.000" y="25.000" width="10" height="10" fill="white" stroke="#444444" stroke-width="0.3" rx="1" />
<rect x="140.000" y="25.000" width="10" height="10" fill="white" stroke="#444444" stroke-width="0.3" rx="1" />
<rect x="150.000" y="25.000" width="10" height="10" fill="white" stroke="#444444" stroke-width="0.3" rx="1" />
<rect x="160.000" y="25.000" width="10" height="10" fill="white" stroke="#444444" stroke-width="0.3" rx="1" />
<rect x="170.000" y="25.000" width="10" height="10" fill="white" stroke="#444444" stroke-width="0.3" rx="1" />
<rect x="60.000" y="39.000" width="10" height="10" fill="white" stroke="#444444" stroke-width="0.3" rx="1" />
<rect x="70.000" y="39.000" width="10" height="10" fill="white" stroke="#444444" stroke-width="0.3" rx="1" />
<rect x="80.000" y="39.000" width="10" height="10" fill="white" stroke="#444444" stroke-width="0.3" rx="1" />
<rect x="120.000" y="39.000" width="10" height="10" fill="white" stroke="#444444" stroke-width="0.3" rx="1" />
<rect x="130.000" y="39.000" width="10" height="10" fill="white" stroke="#444444" stroke-width="0.3" rx="1" />
<rect x="140.000" y="39.000" width="10" height="10" fill="white" stroke="#444444" stroke-width="0.3" rx="1" />

<rect x="30.000" y="53.500" width="10" height="10" fill="white" stroke="#444444" stroke-width="0.3" rx="1" />
<rect x="40.000" y="53.500" width="10" height="10" fill="white" stroke="#444444" stroke-width="0.3" rx="1" />
<rect x="50.000" y="53.500" width="10" height="10" fill="white" stroke="#444444" stroke-width="0.3" rx="1" />
<rect x="60.000" y="53.500" width="10" height="10" fill="white" stroke="#444444" stroke-width="0.3" rx="1" />
<rect x="70.000" y="53.500" width="10" height="10" fill="white" stroke="#444444" stroke-width="0.3" rx="1" />
<rect x="80.000" y="53.500" width="10" height="10" fill="white" stroke="#444444" stroke-width="0.3" rx="1" />
<rect x="90.000" y="58.500" width="10" height="10" fill="white" stroke="#444444" stroke-width="0.3" rx="1" />
<rect x="110.000" y="58.500" width="10" height="10" fill="white" stroke="#444444" stroke-width="0.3" rx="1" />
<rect x="120.000" y="53.500" width="10" height="10" fill="white" stroke="#444444" stroke-width="0.3" rx="1" />
<rect x="130.000" y="53.500" width="10" height="10" fill="white" stroke="#444444" stroke-width="0.3" rx="1" />
<rect x="140.000" y="53.500" width="10" height="10" fill="white" stroke="#444444" stroke-width="0.3" rx="1" />
<rect x="150.000" y="53.500" width="10" height="10" fill="white" stroke="#444444" stroke-width="0.3" rx="1" />
<rect x="160.000" y="53.500" width="10" height="10" fill="white" stroke="#444444" stroke-width="0.3" rx="1" />
<rect x="170.000" y="53.500" width="10" height="10" fill="white" stroke="#444444" stroke-width="0.3" rx="1" />
<rect x="30.000" y="63.500" width="10" height="10" fill="white" stroke="#444444" stroke-width="0.3" rx="1" />
<rect x="40.000" y="63.500" width="10" height="10" fill="white" stroke="#444444" stroke-width="0.3" rx="1" />
<rect x="50.000" y="63.500" width="10" height="10" fill="white" stroke="#444444" stroke-width="0.3" rx="1" />
<rect x="60.000" y="63.500" width="10" height="10" fill="white" stroke="#444444" stroke-width="0.3" rx="1" />
<rect x="70.000" y="63.500" width="10" height="10" fill="white" stroke="#444444" stroke-width="0.3" rx="1" />
<rect x="80.000" y="63.500" width="10" height="10" fill="white" stroke="#444444" stroke-width="0.3" rx="1" />
<rect x="90.000" y="68.500" width="10" height="10" fill="white" stroke="#444444" stroke-width="0.3" rx="1" />
<rect x="110.000" y="68.500" width="10" height="10" fill="white" stroke="#444444" stroke-width="0.3" rx="1" />
<rect x="120.000" y="63.500" width="10" height="10" fill="white" stroke="#444444" stroke-width="0.3" rx="1" />
<rect x="130.000" y="63.500" width="10" height="10" fill="white" stroke="#444444" stroke-width="0.3" rx="1" />
<rect x="140.000" y="63.500" width="10" height="10" fill="white" stroke="#444444" stroke-width="0.3" rx="1" />
<rect x="150.000" y="63.500" width="10" height="10" fill="white" stroke="#444444" stroke-width="0.3" rx="1" />
<rect x="160.000" y="63.500" width="10" height="10" fill="white" stroke="#444444" stroke-width="0.3" rx="1" />
<rect x="170.000" y="63.500" width="10" height="10" fill="white" stroke="#444444" stroke-width="0.3" rx="1" />
<rect x="30.000" y="73.500" width="10" height="10" fill="white" stroke="#444444" stroke-width="0.3" rx="1" />
<rect x="40.000" y="73.500" width="10" height="10" fill="white" stroke="#444444" stroke-width="0.3" rx="1" />
<rect x="50.000" y="73.500" width="10" height="10" fill="white" stroke="#444444" stroke-width="0.3" rx="1" />
<rect x="60.000" y="73.500" width="10" height="10" fill="white" stroke="#444444" stroke-width="0.3" rx="1" />
<rect x="70.000" y="73.500" width="10" height="10" fill="white" stroke="#444444" stroke-width="0.3" rx="1" />
<rect x="80.000" y="73.500" width="10" height="10" fill="white" stroke="#444444" stroke-width="0.3" rx="1" />
<rect x="120.000" y="73.500" width="10" height="10" fill="white" stroke="#444444" stroke-width="0.3" rx="1" />
<rect x="130.000" y="73.500" width="10" height="10" fill="white" stroke="#444444" stroke-width="0.3" rx="1" />
<rect x="140.000" y="73.500" width="10" height="10" fill="white" stroke="#444444" stroke-width="0.3" rx="1" />
<rect x="150.000" y="73.500" width="10" height="10" fill="white" stroke="#444444" stroke-width="0.3" rx="1" />
<rect x="160.000" y="73.500" width="10" height="10" fill="white" stroke="#444444" stroke-width="0.3" rx="1" />
<rect x="170.000" y="73.500" width="10" height="10" fill="white" stroke="#444444" stroke-width="0.3" rx="1" />
<rect x="60.000" y="87.500" width="10" height="10" fill="white" stroke="#444444" stroke-width="0.3" rx="1" />
<rect x="70.000" y="87.500" width="10" height="10" fill="white" stroke="#444444" stroke-width="0.3" rx="1" />
<rect x="80.000" y="87.500" width="10" height="10" fill="white" stroke="#444444" stroke-width="0.3" rx="1" />
<rect x="120.000" y="87.500" width="10" height="10" fill="white" stroke="#444444" stroke-width="0.3" rx="1" />
<rect x="130.000" y="87.500" width="10" height="10" fill="white" stroke="#444444" stroke-width="0.3" rx="1" />
<rect x="140.000" y="87.500" width="10" height="10" fill="white" stroke="#444444" stroke-width="0.3" rx="1" />

<rect x="30.000" y="102.000" width="10" height="10" fill="white" stroke="#444444" stroke-width="0.3" rx="1" />
<rect x="40.000" y="102.000" width="10" height="10" fill="white" stroke="#444444" stroke-width="0.3" rx="1" />
<rect x="50.000" y="102.000" width="10" height="10" fill="white" stroke="#444444" stroke-width="0.3" rx="1" />
<rect x="60.000" y="102.000" width="10" height="10" fill="white" stroke="#444444" stroke-width="0.3" rx="1" />
<rect x="70.000" y="102.000" width="10" height="10" fill="white" stroke="#444444" stroke-width="0.3" rx="1" />
<rect x="80.000" y="102.000" width="10" height="10" fill="white" stroke="#444444" stroke-width="0.3" rx="1" />
<rect x="90.000" y="107.000" width="10" height="10" fill="white" stroke="#444444" stroke-width="0.3" rx="1" />
<rect x="110.000" y="107.000" width="10" height="10" fill="white" stroke="#444444" stroke-width="0.3" rx="1" />
<rect x="120.000" y="102.000" width="10" height="10" fill="white" stroke="#444444" stroke-width="0.3" rx="1" />
<rect x="130.000" y="102.000" width="10" height="10" fill="white" stroke="#444444" stroke-width="0.3" rx="1" />
<rect x="140.000" y="102.000" width="10" height="10" fill="white" stroke="#444444" stroke-width="0.3" rx="1" />
<rect x="150.000" y="102.000" width="10" height="10" fill="white" stroke="#444444" stroke-width="0.3" rx="1" />
<rect x="160.000" y="102.000" width="10" height="10" fill="white" stroke="#444444" stroke-width="0.3" rx="1" />
<rect x="170.000" y="102.000" width="10" height="10" fill="white" stroke="#444444" stroke-width="0.3" rx="1" />
<rect x="30.000" y="112.000" width="10" height="10" fill="white" stroke="#444444" stroke-width="0.3" rx="1" />
<rect x="40.000" y="112.000" width="10" height="10" fill="white" stroke="#444444" stroke-width="0.3" rx="1" />
<rect x="50.000" y="112.000" width="10" height="10" fill="white" stroke="#444444" stroke-width="0.3" rx="1" />
<rect x="60.000" y="112.000" width="10" height="10" fill="white" stroke="#444444" stroke-width="0.3" rx="1" />
<rect x="70.000" y="112.000" width="10" height="10" fill="white" stroke="#444444" stroke-width="0.3" rx="1" />
<rect x="80.000" y="112.000" width="10" height="10" fill="white" stroke="#444444" stroke-width="0.3" rx="1" />
<rect x="90.000" y="117.000" width="10" height="10" fill="white" stroke="#444444" stroke-width="0.3" rx="1" />
<rect x="110.000" y="117.000" width="10" height="10" fill="white" stroke="#444444" stroke-width="0.3" rx="1" />
<rect x="120.000" y="112.000" width="10" height="10" fill="white" stroke="#444444" stroke-width="0.3" rx="1" />
<rect x="130.000" y="112.000" width="10" height="10" fill="white" stroke="#444444" stroke-width="0.3" rx="1" />
<rect x="140.000" y="112.000" width="10" height="10" fill="white" stroke="#444444" stroke-width="0.3" rx="1" />
<rect x="150.000" y="112.000" width="10" height="10" fill="white" stroke="#444444" stroke-width="0.3" rx="1" />
<rect x="160.000" y="112.000" width="10" height="10" fill="white" stroke="#444444" stroke-width="0.3" rx="1" />
<rect x="170.000" y="112.000" width="10" height="10" fill="white" stroke="#444444" stroke-width="0.3" rx="1" />
<rect x="30.000" y="122.000" width="10" height="10" fill="white" stroke="#444444" stroke-width="0.3" rx="1" />
<rect x="40.000" y="122.000" width="10" height="10" fill="white" stroke="#444444" stroke-width="0.3" rx="1" />
<rect x="50.000" y="122.000" width="10" height="10" fill="white" stroke="#444444" stroke-width="0.3" rx="1" />
<rect x="60.000" y="122.000" width="10" height="10" fill="white" stroke="#444444" stroke-width="0.3" rx="1" />
<rect x="70.000" y="122.000" width="10" height="10" fill="white" stroke="#444444" stroke-width="0.3" rx="1" />
<rect x="80.000" y="122.000" width="10" height="10" fill="white" stroke="#444444" stroke-width="0.3" rx="1" />
<rect x="120.000" y="122.000" width="10" height="10" fill="white" stroke="#444444" stroke-width="0.3" rx="1" />
<rect x="130.000" y="122.000" width="10" height="10" fill="white" stroke="#444444" stroke-width="0.3" rx="1" />
<rect x="140.000" y="122.000" width="10" height="10" fill="white" stroke="#444444" stroke-width="0.3" rx="1" />
<rect x="150.000" y="122.000" width="10" height="10" fill="white" stroke="#444444" stroke-width="0.3" rx="1" />
<rect x="160.000" y="122.000" width="10" height="10" fill="white" stroke="#444444" stroke-width="0.3" rx="1" />
<rect x="170.000" y="122.000" width="10" height="10" fill="white" stroke="#444444" stroke-width="0.3" rx="1" />
<rect x="60.000" y="136.000" width="10" height="10" fill="white" stroke="#444444" stroke-width="0.3" rx="1" />
<rect x="70.000" y="136.000" width="10" height="10" fill="white" stroke="#444444" stroke-width="0.3" rx="1" />
<rect x="80.000" y="136.000" width="10" height="10" fill="white" stroke="#444444" stroke-width="0.3" rx="1" />
<rect x="120.000" y="136.000" width="10" height="10" fill="white" stroke="#444444" stroke-width="0.3" rx="1" />
<rect x="130.000" y="136.000" width="10" height="10" fill="white" stroke="#444444" stroke-width="0.3" rx="1" />
<rect x="140.000" y="136.000" width="10" height="10" fill="white" stroke="#444444" stroke-width="0.3" rx="1" />

<rect x="30.000" y="150.500" width="10" height="10" fill="white" stroke="#444444" stroke-width="0.3" rx="1" />
<rect x="40.000" y="150.500" width="10" height="10" fill="white" stroke="#444444" stroke-width="0.3" rx="1" />
<rect x="50.000" y="150.500" width="10" height="10" fill="white" stroke="#444444" stroke-width="0.3" rx="1" />
<rect x="60.000" y="150.500" width="10" height="10" fill="white" stroke="#444444" stroke-width="0.3" rx="1" />
<rect x="70.000" y="150.500" width="10" height="10" fill="white" stroke="#444444" stroke-width="0.3" rx="1" />
<rect x="80.000" y="150.500" width="10" height="10" fill="white" stroke="#444444" stroke-width="0.3" rx="1" />
<rect x="90.000" y="155.500" width="10" height="10" fill="white" stroke="#444444" stroke-width="0.3" rx="1" />
<rect x="110.000" y="155.500" width="10" height="10" fill="white" stroke="#444444" stroke-width="0.3" rx="1" />
<rect x="120.000" y="150.500" width="10" height="10" fill="white" stroke="#444444" stroke-width="0.3" rx="1" />
<rect x="130.000" y="150.500" width="10" height="10" fill="white" stroke="#444444" stroke-width="0.3" rx="1" />
<rect x="140.000" y="150.500" width="10" height="10" fill="white" stroke="#444444" stroke-width="0.3" rx="1" />
<rect x="150.000" y="150.500" width="10" height="10" fill="white" stroke="#444444" stroke-width="0.3" rx="1" />
<rect x="160.000" y="150.500" width="10" height="10" fill="white" stroke="#444444" stroke-width="0.3" rx="1" />
<rect x="170.000" y="150.500" width="10" height="10" fill="white" stroke="#444444" stroke-width="0.3" rx="1" />
<rect x="30.000" y="160.500" width="10" height="10" fill="white" stroke="#444444" stroke-width="0.3" rx="1" />
<rect x="40.000" y="160.500" width="10" height="10" fill="white" stroke="#444444" stroke-width="0.3" rx="1" />
<rect x="50.000" y="160.500" width="10" height="10" fill="white" stroke="#444444" stroke-width="0.3" rx="1" />
<rect x="60.000" y="160.500" width="10" height="10" fill="white" stroke="#444444" stroke-width="0.3" rx="1" />
<rect x="70.000" y="160.500" width="10" height="10" fill="white" stroke="#444444" stroke-width="0.3" rx="1" />
<rect x="80.000" y="160.500" width="10" height="10" fill="white" stroke="#444444" stroke-width="0.3" rx="1" />
<rect x="90.000" y="165.500" width="10" height="10" fill="white" stroke="#444444" stroke-width="0.3" rx="1" />
<rect x="110.000" y="165.500" width="10" height="10" fill="white" stroke="#444444" stroke-width="0.3" rx="1" />
<rect x="120.000" y="160.500" width="10" height="10" fill="white" stroke="#444444" stroke-width="0.3" rx="1" />
<rect x="130.000" y="160.500" width="10" height="10" fill="white" stroke="#444444" stroke-width="0.3" rx="1" />
<rect x="140.000" y="160.500" width="10" height="10" fill="white" stroke="#444444" stroke-width="0.3" rx="1" />
<rect x="150.000" y="160.500" width="10" height="10" fill="white" stroke="#444444" stroke-width="0.3" rx="1" />
<rect x="160.000" y="160.500" width="10" height="10" fill="white" stroke="#444444" stroke-width="0.3" rx="1" />
<rect x="170.000" y="160.500" width="10" height="10" fill="white" stroke="#444444" stroke-width="0.3" rx="1" />
<rect x="30.000" y="170.500" width="10" height="10" fill="white" stroke="#444444" stroke-width="0.3" rx="1" />
<rect x="40.000" y="170.500" width="10" height="10" fill="white" stroke="#444444" stroke-width="0.3" rx="1" />
<rect x="50.000" y="170.500" width="10" height="10" fill="white" stroke="#444444" stroke-width="0.3" rx="1" />
<rect x="60.000" y="170.500" width="10" height="10" fill="white" stroke="#444444" stroke-width="0.3" rx="1" />
<rect x="70.000" y="170.500" width="10" height="10" fill="white" stroke="#444444" stroke-width="0.3" rx="1" />
<rect x="80.000" y="170.500" width="10" height="10" fill="white" stroke="#444444" stroke-width="0.3" rx="1" />
<rect x="120.000" y="170.500" width="10" height="10" fill="white" stroke="#444444" stroke-width="0.3" rx="1" />
<rect x="130.000" y="170.500" width="10" height="10" fill="white" stroke="#444444" stroke-width="0.3" rx="1" />
<rect x="140.000" y="170.500" width="10" height="10" fill="white" stroke="#444444" stroke-width="0.3" rx="1" />
<rect x="150.000" y="170.500" width="10" height="10" fill="white" stroke="#444444" stroke-width="0.3" rx="1" />
<rect x="160.000" y="170.500" width="10" height="10" fill="white" stroke="#444444" stroke-width="0.3" rx="1" />
<rect x="170.000" y="170.500" width="10" height="10" fill="white" stroke="#444444" stroke-width="0.3" rx="1" />
<rect x="60.000" y="184.500" width="10" height="10" fill="white" stroke="#444444" stroke-width="0.3" rx="1" />
<rect x="70.000" y="184.500" width="10" height="10" fill="white" stroke="#444444" stroke-width="0.3" rx="1" />
<rect x="80.000" y="184.500" width="10" height="10" fill="white" stroke="#444444" stroke-width="0.3" rx="1" />
<rect x="120.000" y="184.500" width="10" height="10" fill="white" stroke="#444444" stroke-width="0.3" rx="1" />
<rect x="130.000" y="184.500" width="10" height="10" fill="white" stroke="#444444" stroke-width="0.3" rx="1" />
<rect x="140.000" y="184.500" width="10" height="10" fill="white" stroke="#444444" stroke-width="0.3" rx="1" />

<rect x="30.000" y="199.000" width="10" height="10" fill="white" stroke="#444444" stroke-width="0.3" rx="1" />
<rect x="40.000" y="199.000" width="10" height="10" fill="white" stroke="#444444" stroke-width="0.3" rx="1" />
<rect x="50.000" y="199.000" width="10" height="10" fill="white" stroke="#444444" stroke-width="0.3" rx="1" />
<rect x="60.000" y="199.000" width="10" height="10" fill="white" stroke="#444444" stroke-width="0.3" rx="1" />
<rect x="70.000" y="199.000" width="10" height="10" fill="white" stroke="#444444" stroke-width="0.3" rx="1" />
<rect x="80.000" y="199.000" width="10" height="10" fill="white" stroke="#444444" stroke-width="0.3" rx="1" />
<rect x="90.000" y="204.000" width="10" height="10" fill="white" stroke="#444444" stroke-width="0.3" rx="1" />
<rect x="110.000" y="204.000" width="10" height="10" fill="white" stroke="#444444" stroke-width="0.3" rx="1" />
<rect x="120.000" y="199.000" width="10" height="10" fill="white" stroke="#444444" stroke-width="0.3" rx="1" />
<rect x="130.000" y="199.000" width="10" height="10" fill="white" stroke="#444444" stroke-width="0.3" rx="1" />
<rect x="140.000" y="199.000" width="10" height="10" fill="white" stroke="#444444" stroke-width="0.3" rx="1" />
<rect x="150.000" y="199.000" width="10" height="10" fill="white" stroke="#444444" stroke-width="0.3" rx="1" />
<rect x="160.000" y="199.000" width="10" height="10" fill="white" stroke="#444444" stroke-width="0.3" rx="1" />
<rect x="170.000" y="199.000" width="10" height="10" fill="white" stroke="#444444" stroke-width="0.3" rx="1" />
<rect x="30.000" y="209.000" width="10" height="10" fill="white" stroke="#444444" stroke-width="0.3" rx="1" />
<rect x="40.000" y="209.000" width="10" height="10" fill="white" stroke="#444444" stroke-width="0.3" rx="1" />
<rect x="50.000" y="209.000" width="10" height="10" fill="white" stroke="#444444" stroke-width="0.3" rx="1" />
<rect x="60.000" y="209.000" width="10" height="10" fill="white" stroke="#444444" stroke-width="0.3" rx="1" />
<rect x="70.000" y="209.000" width="10" height="10" fill="white" stroke="#444444" stroke-width="0.3" rx="1" />
<rect x="80.000" y="209.000" width="10" height="10" fill="white" stroke="#444444" stroke-width="0.3" rx="1" />
<rect x="90.000" y="214.000" width="10" height="10" fill="white" stroke="#444444" stroke-width="0.3" rx="1" />
<rect x="110.000" y="214.000" width="10" height="10" fill="white" stroke="#444444" stroke-width="0.3" rx="1" />
<rect x="120.000" y="209.000" width="10" height="10" fill="white" stroke="#444444" stroke-width="0.3" rx="1" />
<rect x="130.000" y="209.000" width="10" height="10" fill="white" stroke="#444444" stroke-width="0.3" rx="1" />
<rect x="140.000" y="209.000" width="10" height="10" fill="white" stroke="#444444" stroke-width="0.3" rx="1" />
<rect x="150.000" y="209.000" width="10" height="10" fill="white" stroke="#444444" stroke-width="0.3" rx="1" />
<rect x="160.000" y="209.000" width="10" height="10" fill="white" stroke="#444444" stroke-width="0.3" rx="1" />
<rect x="170.000" y="209.000" width="10" height="10" fill="white" stroke="#444444" stroke-width="0.3" rx="1" />
<rect x="30.000" y="219.000" width="10" height="10" fill="white" stroke="#444444" stroke-width="0.3" rx="1" />
<rect x="40.000" y="219.000" width="10" height="10" fill="white" stroke="#444444" stroke-width="0.3" rx="1" />
<rect x="50.000" y="219.000" width="10" height="10" fill="white" stroke="#444444" stroke-width="0.3" rx="1" />
<rect x="60.000" y="219.000" width="10" height="10" fill="white" stroke="#444444" stroke-width="0.3" rx="1" />
<rect x="70.000" y="219.000" width="10" height="10" fill="white" stroke="#444444" stroke-width="0.3" rx="1" />
<rect x="80.000" y="219.000" width="10" height="10" fill="white" stroke="#444444" stroke-width="0.3" rx="1" />
<rect x="120.000" y="219.000" width="10" height="10" fill="white" stroke="#444444" stroke-width="0.3" rx="1" />
<rect x="130.000" y="219.000" width="10" height="10" fill="white" stroke="#444444" stroke-width="0.3" rx="1" />
<rect x="140.000" y="219.000" width="10" height="10" fill="white" stroke="#444444" stroke-width="0.3" rx="1" />
<rect x="150.000" y="219.000" width="10" height="10" fill="white" stroke="#444444" stroke-width="0.3" rx="1" />
<rect x="160.000" y="219.000" width="10" height="10" fill="white" stroke="#444444" stroke-width="0.3" rx="1" />
<rect x="170.000" y="219.000" width="10" height="10" fill="white" stroke="#444444" stroke-width="0.3" rx="1" />
<rect x="60.000" y="233.000" width="10" height="10" fill="white" stroke="#444444" stroke-width="0.3" rx="1" />
<rect x="70.000" y="233.000" width="10" height="10" fill="white" stroke="#444444" stroke-width="0.3" rx="1" />
<rect x="80.000" y="233.000" width="10" height="10" fill="white" stroke="#444444" stroke-width="0.3" rx="1" />
<rect x="120.000" y="233.000" width="10" height="10" fill="white" stroke="#444444" stroke-width="0.3" rx="1" />
<rect x="130.000" y="233.000" width="10" height="10" fill="white" stroke="#444444" stroke-width="0.3" rx="1" />
<rect x="140.000" y="233.000" width="10" height="10" fill="white" stroke="#444444" stroke-width="0.3" rx="1" />

<rect x="30.000" y="247.500" width="10" height="10" fill="white" stroke="#444444" stroke-width="0.3" rx="1" />
<rect x="40.000" y="247.500" width="10" height="10" fill="white" stroke="#444444" stroke-width="0.3" rx="1" />
<rect x="50.000" y="247.500" width="10" height="10" fill="white" stroke="#444444" stroke-width="0.3" rx="1" />
<rect x="60.000" y="247.500" width="10" height="10" fill="white" stroke="#444444" stroke-width="0.3" rx="1" />
<rect x="70.000" y="247.500" width="10" height="10" fill="white" stroke="#444444" stroke-width="0.3" rx="1" />
<rect x="80.000" y="247.500" width="10" height="10" fill="white" stroke="#444444" stroke-width="0.3" rx="1" />
<rect x="90.000" y="252.500" width="10" height="10" fill="white" stroke="#444444" stroke-width="0.3" rx="1" />
<rect x="110.000" y="252.500" width="10" height="10" fill="white" stroke="#444444" stroke-width="0.3" rx="1" />
<rect x="120.000" y="247.500" width="10" height="10" fill="white" stroke="#444444" stroke-width="0.3" rx="1" />
<rect x="130.000" y="247.500" width="10" height="10" fill="white" stroke="#444444" stroke-width="0.3" rx="1" />
<rect x="140.000" y="247.500" width="10" height="10" fill="white" stroke="#444444" stroke-width="0.3" rx="1" />
<rect x="150.000" y="247.500" width="10" height="10" fill="white" stroke="#444444" stroke-width="0.3" rx="1" />
<rect x="160.000" y="247.500" width="10" height="10" fill="white" stroke="#444444" stroke-width="0.3" rx="1" />
<rect x="170.000" y="247.500" width="10" height="10" fill="white" stroke="#444444" stroke-width="0.3" rx="1" />
<rect x="30.000" y="257.500" width="10" height="10" fill="white" stroke="#444444" stroke-width="0.3" rx="1" />
<rect x="40.000" y="257.500" width="10" height="10" fill="white" stroke="#444444" stroke-width="0.3" rx="1" />
<rect x="50.000" y="257.500" width="10" height="10" fill="white" stroke="#444444" stroke-width="0.3" rx="1" />
<rect x="60.000" y="257.500" width="10" height="10" fill="white" stroke="#444444" stroke-width="0.3" rx="1" />
<rect x="70.000" y="257.500" width="10" height="10" fill="white" stroke="#444444" stroke-width="0.3" rx="1" />
<rect x="80.000" y="257.500" width="10" height="10" fill="white" stroke="#444444" stroke-width="0.3" rx="1" />
<rect x="90.000" y="262.500" width="10" height="10" fill="white" stroke="#444444" stroke-width="0.3" rx="1" />
<rect x="110.000" y="262.500" width="10" height="10" fill="white" stroke="#444444" stroke-width="0.3" rx="1" />
<rect x="120.000" y="257.500" width="10" height="10" fill="white" stroke="#444444" stroke-width="0.3" rx="1" />
<rect x="130.000" y="257.500" width="10" height="10" fill="white" stroke="#444444" stroke-width="0.3" rx="1" />
<rect x="140.000" y="257.500" width="10" height="10" fill="white" stroke="#444444" stroke-width="0.3" rx="1" />
<rect x="150.000" y="257.500" width="10" height="10" fill="white" stroke="#444444" stroke-width="0.3" rx="1" />
<rect x="160.000" y="257.500" width="10" height="10" fill="white" stroke="#444444" stroke-width="0.3" rx="1" />
<rect x="170.000" y="257.500" width="10" height="10" fill="white" stroke="#444444" stroke-width="0.3" rx="1" />
<rect x="30.000" y="267.500" width="10" height="10" fill="white" stroke="#444444" stroke-width="0.3" rx="1" />
<rect x="40.000" y="267.500" width="10" height="10" fill="white" stroke="#444444" stroke-width="0.3" rx="1" />
<rect x="50.000" y="267.500" width="10" height="10" fill="white" stroke="#444444" stroke-width="0.3" rx="1" />
<rect x="60.000" y="267.500" width="10" height="10" fill="white" stroke="#444444" stroke-width="0.3" rx="1" />
<rect x="70.000" y="267.500" width="10" height="10" fill="white" stroke="#444444" stroke-width="0.3" rx="1" />
<rect x="80.000" y="267.500" width="10" height="10" fill="white" stroke="#444444" stroke-width="0.3" rx="1" />
<rect x="120.000" y="267.500" width="10" height="10" fill="white" stroke="#444444" stroke-width="0.3" rx="1" />
<rect x="130.000" y="267.500" width="10" height="10" fill="white" stroke="#444444" stroke-width="0.3" rx="1" />
<rect x="140.000" y="267.500" width="10" height="10" fill="white" stroke="#444444" stroke-width="0.3" rx="1" />
<rect x="150.000" y="267.500" width="10" height="10" fill="white" stroke="#444444" stroke-width="0.3" rx="1" />
<rect x="160.000" y="267.500" width="10" height="10" fill="white" stroke="#444444" stroke-width="0.3" rx="1" />
<rect x="170.000" y="267.500" width="10" height="10" fill="white" stroke="#444444" stroke-width="0.3" rx="1" />
<rect x="60.000" y="281.500" width="10" height="10" fill="white" stroke="#444444" stroke-width="0.3" rx="1" />
<rect x="70.000" y="281.500" width="10" height="10" fill="white" stroke="#444444" stroke-width="0.3" rx="1" />
<rect x="80.000" y="281.500" width="10" height="10" fill="white" stroke="#444444" stroke-width="0.3" rx="1" />
<rect x="120.000" y="281.500" width="10" height="10" fill="white" stroke="#444444" stroke-width="0.3" rx="1" />
<rect x="130.000" y="281.500" width="10" height="10" fill="white" stroke="#444444" stroke-width="0.3" rx="1" />
<rect x="140.000" y="281.500" width="10" height="10" fill="white" stroke="#444444" stroke-width="0.3" rx="1" />

</svg>
